<svg width="50" height="50" viewBox="0 0 50 50" fill="none" xmlns="http://www.w3.org/2000/svg">
<g clip-path="url(#clip0_3092_482)">
<path fill-rule="evenodd" clip-rule="evenodd" d="M6.3669 22.1149C8.59767 21.3201 10.9451 20.2636 12.7554 18.7341C14.9054 16.9175 15.7798 14.5778 16.367 12.115C17.1208 8.95086 17.422 5.5803 18.3361 2.41107C18.6746 1.23415 19.3259 0.789269 19.6054 0.591833C20.3118 0.0931153 21.0259 -0.0401918 21.6977 0.00980822C22.4938 0.0675005 23.5875 0.368762 24.3067 1.70338C24.4093 1.8944 24.5426 2.18544 24.6323 2.58416C24.6977 2.87647 24.74 3.79055 24.8092 4.16748C24.9823 5.09568 25.1272 6.02392 25.2631 6.95725C25.7156 10.0637 25.9759 12.7021 27.4054 15.5559C29.3451 19.4303 31.2888 21.8008 33.9247 22.8508C36.4734 23.8662 39.5208 23.6752 43.4144 22.8791C43.7849 22.7893 44.1515 22.7124 44.5143 22.6495C46.231 22.3496 47.8721 23.4765 48.2092 25.1867C48.5464 26.8957 47.4554 28.5611 45.7541 28.9367C45.399 29.0149 45.049 29.0893 44.7028 29.1572C39.4413 30.4598 33.3503 35.1085 29.8105 39.179C28.7195 40.4342 27.1221 43.9431 25.4926 46.1816C24.29 47.8329 22.9387 48.9213 21.8041 49.306C21.0438 49.5649 20.4028 49.5252 19.8734 49.3945C19.1041 49.2047 18.4657 48.788 17.9759 48.1252C17.7093 47.7623 17.4618 47.2764 17.3438 46.6559C17.2874 46.3572 17.2811 45.5983 17.2823 45.2547C16.9503 44.1124 16.5439 42.997 16.2477 41.8444C15.5413 39.0944 14.1554 37.3534 12.5092 35.0534C10.9695 32.9008 9.31569 31.5483 6.89134 30.4688C6.57595 30.3919 4.03107 29.7688 3.13235 29.4111C1.81953 28.8867 1.19386 28.0085 0.966935 27.5354C0.581038 26.7329 0.541329 26.0316 0.618252 25.447C0.732355 24.5842 1.11954 23.8457 1.80672 23.2496C2.23236 22.8791 2.86826 22.5188 3.71954 22.3431C4.37723 22.2059 6.12203 22.1265 6.3669 22.1149ZM21.2964 17.6329C21.4144 17.8957 21.54 18.1598 21.6733 18.4265C24.5144 24.1008 27.6913 27.2688 31.5528 28.806L31.6823 28.856C29.099 30.7739 26.7605 32.9175 24.9733 34.9726C24.2374 35.8188 23.2631 37.5765 22.2105 39.3791C21.2541 36.2701 19.69 34.0726 17.7234 31.3226C16.2208 29.2239 14.6464 27.6445 12.7118 26.3573C14.2131 25.5868 15.6451 24.6842 16.8926 23.6303C18.9695 21.8752 20.3426 19.8418 21.2964 17.6329Z" fill="#A0A0A0"/>
</g>
<defs>
<clipPath id="clip0_3092_482">
<rect width="50" height="50" fill="white"/>
</clipPath>
</defs>
</svg>
