<svg width="50" height="50" viewBox="0 0 50 50" fill="none" xmlns="http://www.w3.org/2000/svg">
<path fill-rule="evenodd" clip-rule="evenodd" d="M22.2549 18.7852C17.6136 14.97 13.8528 10.4265 11.0267 5.13307C10.4615 4.07872 9.14633 3.67654 8.08112 4.24175C7.02677 4.80697 6.62452 6.12221 7.18974 7.18743C10.2984 12.9809 14.4072 17.9592 19.4942 22.144C20.4181 22.9048 21.7984 22.7744 22.5593 21.8505C23.3202 20.9157 23.1789 19.5461 22.2549 18.7852Z" fill="#A0A0A0"/>
<path fill-rule="evenodd" clip-rule="evenodd" d="M19.7798 3.92659C20.0189 8.31789 20.2363 12.7092 20.5081 17.1005C20.5842 18.2961 21.6168 19.2092 22.8124 19.1331C24.0081 19.057 24.9211 18.0244 24.845 16.8288C24.5733 12.4483 24.3558 8.06791 24.1167 3.67661C24.0515 2.48422 23.0189 1.56573 21.8233 1.63312C20.6276 1.70051 19.7037 2.72767 19.7798 3.92659Z" fill="#A0A0A0"/>
<path fill-rule="evenodd" clip-rule="evenodd" d="M35.9167 4.81802C33.1341 9.01367 29.9821 12.8832 26.8081 16.7962C26.0473 17.731 26.1885 19.1006 27.1233 19.8506C28.0581 20.6115 29.4277 20.4702 30.1777 19.5354C33.4386 15.5245 36.6777 11.5354 39.5472 7.22015C40.2103 6.22015 39.9276 4.87237 38.9276 4.20933C37.9385 3.54628 36.5798 3.81802 35.9167 4.81802Z" fill="#A0A0A0"/>
<path fill-rule="evenodd" clip-rule="evenodd" d="M46.6957 20.4157C39.1522 20.7527 31.1413 20.7636 23.5978 20.2853C22.4022 20.2201 21.3696 21.1223 21.2935 22.3288C21.2174 23.5244 22.1304 24.557 23.3261 24.6331C31.0217 25.1114 39.1957 25.1005 46.8914 24.7636C48.087 24.7092 49.0217 23.6875 48.9674 22.4919C48.913 21.2962 47.8913 20.3614 46.6957 20.4157Z" fill="#A0A0A0"/>
<path fill-rule="evenodd" clip-rule="evenodd" d="M19.4883 21.7961C24.1404 27.4917 28.9557 33.0788 33.2709 39.0353C33.9774 40.0027 35.3362 40.22 36.3144 39.5135C37.2818 38.807 37.4992 37.4482 36.7926 36.4808C32.4231 30.4591 27.5536 24.8069 22.847 19.0461C22.0862 18.1221 20.7165 17.9809 19.7926 18.7417C18.8578 19.5026 18.7274 20.8722 19.4883 21.7961Z" fill="#A0A0A0"/>
<path fill-rule="evenodd" clip-rule="evenodd" d="M20.8972 23.4486C22.1146 29.3834 22.4515 35.0574 22.5385 41.0682C22.5494 42.2639 23.5385 43.2204 24.7342 43.2095C25.9407 43.1878 26.8972 42.2095 26.8754 41.003C26.7885 34.7095 26.4298 28.7856 25.1581 22.5682C24.9081 21.3943 23.7668 20.6334 22.582 20.8834C21.4081 21.1225 20.6472 22.2747 20.8972 23.4486Z" fill="#A0A0A0"/>
<path fill-rule="evenodd" clip-rule="evenodd" d="M21.0934 22.9707C17.5717 30.0141 15.7565 37.8403 11.9847 44.7316C11.4086 45.775 11.7999 47.1011 12.8542 47.6772C13.9086 48.2533 15.2239 47.8619 15.8 46.8184C19.5934 39.8836 21.4303 32.0141 24.9847 24.9163C25.5173 23.8402 25.0825 22.5359 24.0173 21.9924C22.9412 21.4598 21.6369 21.8946 21.0934 22.9707Z" fill="#A0A0A0"/>
<path fill-rule="evenodd" clip-rule="evenodd" d="M23.0316 21.3722C16.0207 22.6113 9.02073 23.1765 1.96638 24.0135C0.770732 24.1548 -0.0770942 25.2309 0.0642101 26.4266C0.205514 27.6222 1.2817 28.47 2.47735 28.3287C9.60779 27.4918 16.6947 26.9048 23.7926 25.6548C24.9665 25.4374 25.7599 24.307 25.5534 23.133C25.336 21.9483 24.2164 21.1548 23.0316 21.3722Z" fill="#A0A0A0"/>
<path fill-rule="evenodd" clip-rule="evenodd" d="M27.9102 18.0685C26.4646 18.0033 25.095 17.9054 23.6819 17.6989C22.4863 17.525 21.3884 18.3511 21.2145 19.5359C21.0406 20.7206 21.8666 21.8294 23.0514 22.0033C24.6166 22.2315 26.1276 22.3402 27.7145 22.4054C28.9102 22.4598 29.9319 21.5358 29.9753 20.3293C30.0297 19.1337 29.1059 18.1228 27.9102 18.0685Z" fill="#A0A0A0"/>
</svg>
