<svg width="35" height="50" viewBox="0 0 35 50" fill="none" xmlns="http://www.w3.org/2000/svg">
<path d="M3.43999 6.58207C3.61914 5.47431 3.45431 4.08418 4.06345 3.32395C4.75142 2.4696 6.47137 1.44149 7.145 1.7673C11.6096 3.90318 15.9309 2.02795 20.2737 1.60801C23.9858 1.246 27.6549 0.406125 31.3671 0.0441122C34.3268 -0.245498 35.1079 0.876751 34.7783 3.83078C33.4955 15.5166 32.2199 27.2023 31.059 38.9026C30.8798 40.7127 31.4388 42.5807 31.4818 44.4197C31.5534 47.4896 29.8192 48.5539 26.9741 47.533C22.8392 46.0415 18.6756 46.8235 14.5334 47.6633C10.6923 48.4453 6.86548 49.372 2.9885 49.915C0.27247 50.2988 -0.143173 49.4155 0.0359851 46.5918C0.286806 42.5879 -0.035713 38.5406 0.358434 34.5584C1.14673 26.6376 2.26468 18.7457 3.23213 10.8393C3.40413 9.43474 3.53312 8.02289 3.68362 6.61104C3.59762 6.59656 3.51881 6.58208 3.43281 6.57484L3.43999 6.58207ZM25.6914 41.7553C26.8739 29.6351 28.0491 17.609 29.2316 5.47431C28.4218 5.47431 27.8987 5.40192 27.4042 5.4888C22.6529 6.27799 17.9231 7.32059 13.1432 7.82017C10.4558 8.10254 9.77499 9.24648 9.50984 11.7371C8.57105 20.5413 7.41728 29.3237 6.29934 38.1062C6.01269 40.3579 5.55405 42.5807 5.14557 45.0061C8.7144 44.1518 11.9679 43.1671 15.2859 42.6386C18.6469 42.1101 22.0796 42.0376 25.6914 41.7553Z" fill="#A0A0A0"/>
</svg>
