<svg width="50" height="44" viewBox="0 0 50 44" fill="none" xmlns="http://www.w3.org/2000/svg">
<path d="M50 34.0179C49.9336 38.3429 47.3565 39.2406 44.6864 39.567C33.7935 40.859 22.8873 42.1103 11.9679 43.0895C8.22177 43.4295 3.94434 44.5856 1.11484 40.7366C0.25138 39.567 -0.346378 37.1868 0.224835 36.058C4.62184 27.476 9.32433 19.0572 13.9472 10.5976C15.3553 8.02712 16.2719 4.81738 18.3575 3.1173C20.6556 1.25401 23.9766 0.410762 26.9788 0.0027429C27.7758 -0.106062 28.9316 3.04929 30.0209 4.64056C35.4275 12.5017 40.8739 20.3221 46.2805 28.1832C47.5823 30.0873 48.7646 32.073 50 34.0315V34.0179ZM40.037 32.2037C36.7027 26.573 27.4023 14.5384 23.9352 8.7037C21.026 14.7696 12.0019 29.8234 10.0093 34.8148C9.74358 35.4812 39.1204 32.3261 40.037 32.2037C34.6836 33.4278 44.4075 31.6461 40.037 32.2037Z" fill="#A0A0A0"/>
</svg>
